<svg width="64" height="64" viewBox="0 0 64 64" fill="none" xmlns="http://www.w3.org/2000/svg">
<rect width="64" height="64" rx="32" fill="url(#paint0_linear_184_1182)"/>
<path d="M36.636 33.1866L38.656 44.5546C38.6786 44.6885 38.6598 44.8261 38.6021 44.949C38.5445 45.0719 38.4506 45.1742 38.3332 45.2424C38.2158 45.3105 38.0804 45.3412 37.945 45.3303C37.8097 45.3193 37.681 45.2674 37.576 45.1813L32.8026 41.5986C32.5722 41.4265 32.2923 41.3335 32.0046 41.3335C31.717 41.3335 31.4371 41.4265 31.2066 41.5986L26.4253 45.18C26.3204 45.2659 26.1918 45.3178 26.0566 45.3287C25.9215 45.3396 25.7862 45.3091 25.6689 45.2411C25.5515 45.1732 25.4577 45.0711 25.3999 44.9484C25.3421 44.8258 25.323 44.6884 25.3453 44.5546L27.364 33.1866" stroke="white" stroke-width="2.66667" stroke-linecap="round" stroke-linejoin="round"/>
<path d="M32 34.6666C36.4183 34.6666 40 31.0849 40 26.6666C40 22.2483 36.4183 18.6666 32 18.6666C27.5817 18.6666 24 22.2483 24 26.6666C24 31.0849 27.5817 34.6666 32 34.6666Z" stroke="white" stroke-width="2.66667" stroke-linecap="round" stroke-linejoin="round"/>
<defs>
<linearGradient id="paint0_linear_184_1182" x1="0" y1="0" x2="64" y2="64" gradientUnits="userSpaceOnUse">
<stop stop-color="#663ACD"/>
<stop offset="1" stop-color="#D0C2F0"/>
</linearGradient>
</defs>
</svg>
