<svg width="65" height="64" viewBox="0 0 65 64" fill="none" xmlns="http://www.w3.org/2000/svg">
<rect x="0.5" width="64" height="64" rx="32" fill="url(#paint0_linear_184_1194)"/>
<path d="M37.8333 44V41.3333C37.8333 39.9188 37.2714 38.5623 36.2712 37.5621C35.271 36.5619 33.9144 36 32.5 36H24.5C23.0855 36 21.7289 36.5619 20.7287 37.5621C19.7285 38.5623 19.1666 39.9188 19.1666 41.3333V44" stroke="white" stroke-width="2.66667" stroke-linecap="round" stroke-linejoin="round"/>
<path d="M28.5 30.6667C31.4455 30.6667 33.8333 28.2789 33.8333 25.3333C33.8333 22.3878 31.4455 20 28.5 20C25.5544 20 23.1666 22.3878 23.1666 25.3333C23.1666 28.2789 25.5544 30.6667 28.5 30.6667Z" stroke="white" stroke-width="2.66667" stroke-linecap="round" stroke-linejoin="round"/>
<path d="M45.8334 44V41.3333C45.8325 40.1516 45.4392 39.0037 44.7152 38.0698C43.9912 37.1358 42.9775 36.4688 41.8334 36.1733" stroke="white" stroke-width="2.66667" stroke-linecap="round" stroke-linejoin="round"/>
<path d="M37.8334 20.1733C38.9806 20.4671 39.9974 21.1343 40.7236 22.0698C41.4497 23.0052 41.8438 24.1558 41.8438 25.34C41.8438 26.5242 41.4497 27.6748 40.7236 28.6103C39.9974 29.5457 38.9806 30.2129 37.8334 30.5067" stroke="white" stroke-width="2.66667" stroke-linecap="round" stroke-linejoin="round"/>
<defs>
<linearGradient id="paint0_linear_184_1194" x1="0.5" y1="0" x2="64.5" y2="64" gradientUnits="userSpaceOnUse">
<stop stop-color="#663ACD"/>
<stop offset="1" stop-color="#D0C2F0"/>
</linearGradient>
</defs>
</svg>
